<?xml version="1.0" encoding="UTF-8"?>
<svg xmlns="http://www.w3.org/2000/svg" xmlns:xlink="http://www.w3.org/1999/xlink" viewBox="0 0 48 48" width="48px" height="48px">
<g id="surface18166011">
<path style=" stroke:none;fill-rule:evenodd;fill:rgb(40.000001%,40.000001%,40.000001%);fill-opacity:1;" d="M 10.902344 6 L 37.09375 6 C 39.804688 6 42 8.195312 42 10.902344 L 42 37.09375 C 42 39.804688 39.804688 42 37.097656 42 L 10.902344 42 C 8.195312 42 6 39.804688 6 37.097656 L 6 10.902344 C 6 8.195312 8.195312 6 10.902344 6 Z M 10.902344 6 "/>
<path style=" stroke:none;fill-rule:evenodd;fill:rgb(92.54902%,25.098041%,47.843137%);fill-opacity:1;" d="M 29.207031 20.605469 C 30.785156 21.734375 32.714844 22.394531 34.800781 22.394531 L 34.800781 18.382812 C 34.40625 18.382812 34.011719 18.34375 33.625 18.261719 L 33.625 21.417969 C 31.539062 21.417969 29.609375 20.753906 28.035156 19.628906 L 28.035156 27.8125 C 28.035156 31.90625 24.714844 35.226562 20.617188 35.226562 C 19.089844 35.226562 17.667969 34.765625 16.488281 33.972656 C 17.835938 35.347656 19.714844 36.203125 21.789062 36.203125 C 25.886719 36.203125 29.207031 32.882812 29.207031 28.789062 Z M 30.65625 16.5625 C 29.851562 15.683594 29.324219 14.546875 29.207031 13.289062 L 29.207031 12.773438 L 28.09375 12.773438 C 28.375 14.367188 29.332031 15.734375 30.65625 16.5625 Z M 19.078125 30.832031 C 18.628906 30.242188 18.386719 29.519531 18.386719 28.777344 C 18.386719 26.90625 19.90625 25.386719 21.78125 25.386719 C 22.128906 25.386719 22.476562 25.441406 22.808594 25.546875 L 22.808594 21.445312 C 22.421875 21.394531 22.027344 21.371094 21.636719 21.378906 L 21.636719 24.570312 C 21.300781 24.464844 20.953125 24.410156 20.605469 24.410156 C 18.730469 24.410156 17.210938 25.929688 17.210938 27.800781 C 17.214844 29.128906 17.972656 30.273438 19.078125 30.832031 Z M 19.078125 30.832031 "/>
<path style=" stroke:none;fill-rule:evenodd;fill:rgb(100%,100%,100%);fill-opacity:1;" d="M 28.035156 19.628906 C 29.609375 20.757812 31.539062 21.417969 33.625 21.417969 L 33.625 18.261719 C 32.460938 18.011719 31.433594 17.40625 30.65625 16.558594 C 29.332031 15.734375 28.375 14.367188 28.097656 12.773438 L 25.171875 12.773438 L 25.171875 28.789062 C 25.164062 30.65625 23.648438 32.167969 21.78125 32.167969 C 20.679688 32.167969 19.699219 31.644531 19.078125 30.832031 C 17.972656 30.273438 17.214844 29.125 17.214844 27.800781 C 17.214844 25.929688 18.730469 24.410156 20.605469 24.410156 C 20.964844 24.410156 21.3125 24.46875 21.636719 24.570312 L 21.636719 21.378906 C 17.613281 21.464844 14.375 24.75 14.375 28.789062 C 14.375 30.808594 15.183594 32.636719 16.488281 33.972656 C 17.671875 34.765625 19.089844 35.226562 20.617188 35.226562 C 24.714844 35.226562 28.035156 31.910156 28.035156 27.816406 Z M 28.035156 19.628906 "/>
<path style=" stroke:none;fill-rule:evenodd;fill:rgb(50.588238%,83.137256%,98.039216%);fill-opacity:1;" d="M 33.625 18.261719 L 33.625 17.40625 C 32.574219 17.410156 31.546875 17.117188 30.65625 16.558594 C 31.445312 17.421875 32.484375 18.019531 33.625 18.261719 Z M 28.09375 12.773438 C 28.066406 12.617188 28.046875 12.464844 28.035156 12.3125 L 28.035156 11.796875 L 23.996094 11.796875 L 23.996094 27.8125 C 23.992188 29.679688 22.476562 31.191406 20.605469 31.191406 C 20.054688 31.191406 19.539062 31.0625 19.078125 30.832031 C 19.699219 31.644531 20.679688 32.167969 21.78125 32.167969 C 23.648438 32.167969 25.164062 30.65625 25.171875 28.789062 L 25.171875 12.773438 Z M 21.636719 21.378906 L 21.636719 20.472656 C 21.296875 20.425781 20.957031 20.402344 20.617188 20.402344 C 16.519531 20.402344 13.199219 23.722656 13.199219 27.816406 C 13.199219 30.382812 14.503906 32.644531 16.488281 33.972656 C 15.179688 32.636719 14.375 30.808594 14.375 28.789062 C 14.375 24.75 17.609375 21.464844 21.636719 21.378906 Z M 21.636719 21.378906 "/>
</g>
</svg>
